
<svg width="208px" height="39px" viewBox="0 0 208 39" version="1.1" xmlns="http://www.w3.org/2000/svg" xmlns:xlink="http://www.w3.org/1999/xlink">
    <!-- Generator: Sketch 46.2 (44496) - http://www.bohemiancoding.com/sketch -->
    <desc>Created with Sketch.</desc>
    <defs></defs>
    <g id="Page-1" stroke="none" stroke-width="1" fill="none" fill-rule="evenodd">
        <path d="M18.014,27.108 C18.7340036,25.8839939 19.3519974,24.5520072 19.868,23.112 C20.3840026,21.6719928 20.9119973,20.1900076 21.452,18.666 C21.9920027,17.1419924 22.5919967,15.6120077 23.252,14.076 C23.9120033,12.5399923 24.7219952,11.0460073 25.682,9.594 C26.6420048,8.14199274 27.8119931,6.76800648 29.192,5.472 C30.5720069,4.17599352 32.25799,3.02400504 34.25,2.016 L34.178,1.944 C32.2099902,2.68800372 30.422008,3.67199388 28.814,4.896 C27.205992,6.12000612 25.7720063,7.41599316 24.512,8.784 C23.2519937,10.1520068 22.1600046,11.4839935 21.236,12.78 C20.3119954,14.0760065 19.5380031,15.1679956 18.914,16.056 C17.7379941,17.7360084 16.6280052,19.2659931 15.584,20.646 C14.5399948,22.0260069 13.4840053,23.2079951 12.416,24.192 C11.3479947,25.1760049 10.2260059,25.9379973 9.05,26.478 C7.87399412,27.0180027 6.54200744,27.288 5.054,27.288 C4.38199664,27.288 3.746003,27.192001 3.146,27 C2.545997,26.807999 2.01200234,26.5260019 1.544,26.154 C1.07599766,25.7819981 0.70400138,25.3260027 0.428,24.786 C0.15199862,24.2459973 0.014,23.6160036 0.014,22.896 C0.014,22.1759964 0.24199772,21.5400028 0.698,20.988 C1.15400228,20.4359972 1.75399628,20.16 2.498,20.16 C3.12200312,20.16 3.6439979,20.3519981 4.064,20.736 C4.4840021,21.1200019 4.694,21.6479966 4.694,22.32 C4.694,22.8240025 4.55000144,23.2619981 4.262,23.634 C3.97399856,24.0060019 3.57800252,24.2159998 3.074,24.264 C3.17000048,25.0800041 3.44599772,25.6679982 3.902,26.028 C4.35800228,26.3880018 4.95799628,26.568 5.702,26.568 C7.04600672,26.568 8.317994,26.2200035 9.518,25.524 C10.718006,24.8279965 11.8999942,23.880006 13.064,22.68 C14.2280058,21.479994 15.409994,20.0700081 16.61,18.45 C17.810006,16.8299919 19.0699934,15.0960092 20.39,13.248 C21.4460053,11.7599926 22.5439943,10.3680065 23.684,9.072 C24.8240057,7.77599352 26.0479935,6.59400534 27.356,5.526 C28.6640065,4.45799466 30.0739924,3.51000414 31.586,2.682 C33.0980076,1.85399586 34.753991,1.17600264 36.554,0.648 L36.842,1.08 C35.449993,1.77600348 34.3040045,2.64599478 33.404,3.69 C32.5039955,4.73400522 31.7240033,5.8859937 31.064,7.146 C30.4039967,8.4060063 29.8100026,9.74399292 29.282,11.16 C28.7539974,12.5760071 28.1780031,14.0279926 27.554,15.516 C26.9299969,17.0040074 26.2040041,18.4859926 25.376,19.962 C24.5479959,21.4380074 23.4860065,22.871993 22.19,24.264 L22.262,24.336 C23.1740046,23.5199959 24.025996,22.716004 24.818,21.924 C25.610004,21.131996 26.4499956,20.2260051 27.338,19.206 C28.2260044,18.1859949 29.2039947,16.9980068 30.272,15.642 C31.3400053,14.2859932 32.5819929,12.6600095 33.998,10.764 C35.0540053,9.34799292 36.1639942,8.04600594 37.328,6.858 C38.4920058,5.66999406 39.7339934,4.64400432 41.054,3.78 C42.3740066,2.91599568 43.7779926,2.23800246 45.266,1.746 C46.7540074,1.25399754 48.3379916,1.008 50.018,1.008 C50.9060044,1.008 51.5179983,1.0679994 51.854,1.188 C52.1900017,1.3080006 52.358,1.51199856 52.358,1.8 C52.358,1.94400072 52.256001,2.0759994 52.052,2.196 C51.847999,2.3160006 51.5780017,2.376 51.242,2.376 C50.833998,2.376 50.4980013,2.35200024 50.234,2.304 L49.442,2.16 C49.2739992,2.11199976 49.0400015,2.06400024 48.74,2.016 C48.4399985,1.96799976 48.1580013,1.944 47.894,1.944 C47.485998,1.944 47.0180026,2.13599808 46.49,2.52 C45.9619974,2.90400192 45.4220028,3.46199634 44.87,4.194 C44.3179972,4.92600366 43.7600028,5.81399478 43.196,6.858 C42.6319972,7.90200522 42.0980025,9.07199352 41.594,10.368 C40.801996,12.4560104 40.0280038,14.3339917 39.272,16.002 C38.5159962,17.6700083 37.6580048,19.1639934 36.698,20.484 C35.7379952,21.8040066 34.6100065,22.961995 33.314,23.958 C32.0179935,24.954005 30.4460092,25.8239963 28.598,26.568 L28.598,26.64 L28.67,26.64 C30.0140067,26.64 31.381993,26.5260011 32.774,26.298 C34.166007,26.0699989 35.461994,25.6800028 36.662,25.128 C37.9340064,24.5519971 39.1819939,23.6700059 40.406,22.482 C41.6300061,21.2939941 42.8899935,19.6080109 44.186,17.424 L44.51,17.532 C43.4539947,19.332009 42.4100052,20.8199941 41.378,21.996 C40.3459948,23.1720059 39.230006,24.1199964 38.03,24.84 C37.1419956,25.3680026 36.2240047,25.7819985 35.276,26.082 C34.3279953,26.3820015 33.4040045,26.5979993 32.504,26.73 C31.6039955,26.8620007 30.7760038,26.9399999 30.02,26.964 C29.2639962,26.9880001 28.6460024,27 28.166,27 C27.9499989,27 27.740001,27.0179998 27.536,27.054 C27.331999,27.0900002 27.1160011,27.1259998 26.888,27.162 C26.6599989,27.1980002 26.4020014,27.2279999 26.114,27.252 C25.8259986,27.2760001 25.4660022,27.288 25.034,27.288 C24.2899963,27.288 23.918,27.0960019 23.918,26.712 C23.918,26.2799978 24.2299969,26.064 24.854,26.064 C25.0700011,26.064 25.3099987,26.0879998 25.574,26.136 C25.8380013,26.1840002 26.1019987,26.2439996 26.366,26.316 C26.6300013,26.3880004 26.8819988,26.4479998 27.122,26.496 C27.3620012,26.5440002 27.5659992,26.568 27.734,26.568 C28.2620026,26.568 28.7659976,26.2920028 29.246,25.74 C29.7260024,25.1879972 30.2119975,24.4380047 30.704,23.49 C31.1960025,22.5419953 31.7059974,21.4440062 32.234,20.196 C32.7620026,18.9479938 33.3499968,17.6400068 33.998,16.272 C34.6460032,14.9039932 35.365996,13.5120071 36.158,12.096 C36.950004,10.6799929 37.843995,9.33000642 38.84,8.046 C39.836005,6.76199358 40.9579938,5.5800054 42.206,4.5 C43.4540062,3.4199946 44.8459923,2.54400336 46.382,1.872 L46.31,1.8 C45.0619938,2.11200156 43.8680057,2.59199676 42.728,3.24 C41.5879943,3.88800324 40.4960052,4.64999562 39.452,5.526 C38.4079948,6.40200438 37.4000049,7.39199448 36.428,8.496 C35.4559951,9.60000552 34.5140046,10.7759938 33.602,12.024 C32.6899954,13.2720062 31.6460059,14.6519924 30.47,16.164 C29.2939941,17.6760076 28.0460066,19.1519928 26.726,20.592 C25.4059934,22.0320072 24.044007,23.3459941 22.64,24.534 C21.235993,25.7220059 19.838007,26.615997 18.446,27.216 L18.014,27.108 Z M63.842,17.748 C63.7459995,17.8440005 63.5900011,18.0059989 63.374,18.234 C63.1579989,18.4620011 62.8880016,18.6899989 62.564,18.918 C62.2399984,19.1460011 61.874002,19.3499991 61.466,19.53 C61.057998,19.7100009 60.6140024,19.8 60.134,19.8 C59.5099969,19.8 58.9520025,19.6500015 58.46,19.35 C57.9679975,19.0499985 57.518002,18.6480025 57.11,18.144 L57.038,18.144 C57.038,19.3920062 56.7440029,20.5799944 56.156,21.708 C55.5679971,22.8360056 54.7880049,23.8259957 53.816,24.678 C52.8439951,25.5300043 51.7340062,26.2019975 50.486,26.694 C49.2379938,27.1860025 47.9420067,27.432 46.598,27.432 C45.805996,27.432 45.0380037,27.3480008 44.294,27.18 C43.5499963,27.0119992 42.8900029,26.7360019 42.314,26.352 C41.7379971,25.9679981 41.2760017,25.4640031 40.928,24.84 C40.5799983,24.2159969 40.406,23.4480046 40.406,22.536 C40.406,21.1679932 40.7299968,19.9320055 41.378,18.828 C42.0260032,17.7239945 42.8599949,16.7820039 43.88,16.002 C44.9000051,15.2219961 46.0519936,14.628002 47.336,14.22 C48.6200064,13.811998 49.8859938,13.608 51.134,13.608 C52.1660052,13.608 53.0179966,13.7519986 53.69,14.04 C54.3620034,14.3280014 54.9319977,14.6819979 55.4,15.102 C55.8680023,15.5220021 56.2639984,15.9839975 56.588,16.488 C56.9120016,16.9920025 57.2359984,17.4539979 57.56,17.874 C57.8840016,18.2940021 58.243998,18.6479986 58.64,18.936 C59.036002,19.2240014 59.533997,19.368 60.134,19.368 C60.6860028,19.368 61.2559971,19.2060016 61.844,18.882 C62.4320029,18.5579984 63.0019972,18.0840031 63.554,17.46 L63.842,17.748 Z M51.71,14.04 C51.1339971,14.04 50.5520029,14.237998 49.964,14.634 C49.3759971,15.030002 48.8060028,15.5459968 48.254,16.182 C47.7019972,16.8180032 47.1860024,17.537996 46.706,18.342 C46.2259976,19.146004 45.8060018,19.9559959 45.446,20.772 C45.0859982,21.5880041 44.804001,22.3799962 44.6,23.148 C44.395999,23.9160038 44.294,24.5879971 44.294,25.164 C44.294,25.7160028 44.4199987,26.1599983 44.672,26.496 C44.9240013,26.8320017 45.2779977,27 45.734,27 C46.3100029,27 46.8919971,26.802002 47.48,26.406 C48.0680029,26.009998 48.6379972,25.4940032 49.19,24.858 C49.7420028,24.2219968 50.2579976,23.502004 50.738,22.698 C51.2180024,21.893996 51.6379982,21.0840041 51.998,20.268 C52.3580018,19.4519959 52.639999,18.6540039 52.844,17.874 C53.048001,17.0939961 53.15,16.4280028 53.15,15.876 C53.15,15.3239972 53.0240013,14.8800017 52.772,14.544 C52.5199987,14.2079983 52.1660023,14.04 51.71,14.04 Z M56.894,27 L64.346,14.256 L69.458,14.04 C67.7299914,16.440012 66.0740079,18.8879875 64.49,21.384 L64.562,21.456 C65.1860031,20.663996 65.8819962,19.8120046 66.65,18.9 C67.4180038,17.9879954 68.2279957,17.1420039 69.08,16.362 C69.9320043,15.5819961 70.8079955,14.9280026 71.708,14.4 C72.6080045,13.8719974 73.5019956,13.608 74.39,13.608 C75.3020046,13.608 76.0639969,13.8419977 76.676,14.31 C77.2880031,14.7780023 77.594,15.4919952 77.594,16.452 C77.594,17.244004 77.3480025,18.0599958 76.856,18.9 C76.3639975,19.7400042 75.818003,20.561996 75.218,21.366 C74.617997,22.170004 74.0720025,22.9379963 73.58,23.67 C73.0879975,24.4020037 72.842,25.0439972 72.842,25.596 C72.842,25.8360012 72.9079993,26.0459991 73.04,26.226 C73.1720007,26.4060009 73.3819986,26.496 73.67,26.496 C74.1980026,26.496 74.7979966,26.2500025 75.47,25.758 C76.1420034,25.2659975 76.8379964,24.6600036 77.558,23.94 C78.1100028,23.3879972 78.6619972,22.7940032 79.214,22.158 C79.7660028,21.5219968 80.2819976,20.9100029 80.762,20.322 C81.2420024,19.7339971 81.6739981,19.1940025 82.058,18.702 C82.4420019,18.2099975 82.7419989,17.8200014 82.958,17.532 L83.282,17.712 C82.4659959,18.7920054 81.5960046,19.9079942 80.672,21.06 C79.7479954,22.2120058 78.8180047,23.2679952 77.882,24.228 C76.8979951,25.236005 75.9440046,26.0219972 75.02,26.586 C74.0959954,27.1500028 73.1540048,27.432 72.194,27.432 C71.1139946,27.432 70.3040027,27.1140032 69.764,26.478 C69.2239973,25.8419968 68.954,25.020005 68.954,24.012 C68.954,23.1479957 69.1879977,22.3260039 69.656,21.546 C70.1240023,20.7659961 70.6459971,20.0340034 71.222,19.35 C71.7980029,18.6659966 72.3199977,18.0360029 72.788,17.46 C73.2560023,16.8839971 73.49,16.3440025 73.49,15.84 C73.49,15.1679966 73.1660032,14.832 72.518,14.832 C72.0859978,14.832 71.5580031,15.0539978 70.934,15.498 C70.3099969,15.9420022 69.6380036,16.5239964 68.918,17.244 C68.1979964,17.9640036 67.4660037,18.7679956 66.722,19.656 C65.9779963,20.5440044 65.2760033,21.4319956 64.616,22.32 C63.9559967,23.2080044 63.3800025,24.047996 62.888,24.84 C62.3959975,25.632004 62.0300012,26.2799975 61.79,26.784 L56.894,27 Z M76.082,27 C78.5540124,22.8239791 81.0079878,18.6600208 83.444,14.508 C85.8800122,10.3559792 88.3339876,6.16802112 90.806,1.944 L95.99,1.584 C93.9739899,4.96801692 91.96401,8.31598344 89.96,11.628 C87.95599,14.9400166 85.9220103,18.191984 83.858,21.384 L83.93,21.456 L86.036,18.882 C86.7920038,17.9579954 87.5899958,17.1060039 88.43,16.326 C89.2700042,15.5459961 90.1579953,14.8980026 91.094,14.382 C92.0300047,13.8659974 93.0139948,13.608 94.046,13.608 C94.454002,13.608 94.8499981,13.6499996 95.234,13.734 C95.6180019,13.8180004 95.9539986,13.961999 96.242,14.166 C96.5300014,14.370001 96.7639991,14.6279984 96.944,14.94 C97.1240009,15.2520016 97.214,15.6359977 97.214,16.092 C97.214,16.884004 96.9260029,17.5259975 96.35,18.018 C95.7739971,18.5100025 95.0960039,18.8939986 94.316,19.17 C93.5359961,19.4460014 92.7380041,19.6439994 91.922,19.764 C91.1059959,19.8840006 90.4580024,19.9679998 89.978,20.016 L89.978,20.088 L91.058,20.52 C91.4180018,20.6640007 91.7419986,20.837999 92.03,21.042 C92.3180014,21.246001 92.557999,21.4979985 92.75,21.798 C92.942001,22.0980015 93.038,22.4639978 93.038,22.896 C93.038,23.1360012 92.9960004,23.3879987 92.912,23.652 C92.8279996,23.9160013 92.7320005,24.1739987 92.624,24.426 C92.5159995,24.6780013 92.4200004,24.9239988 92.336,25.164 C92.2519996,25.4040012 92.21,25.619999 92.21,25.812 C92.21,26.2680023 92.413998,26.496 92.822,26.496 C93.230002,26.496 93.6979974,26.3340016 94.226,26.01 C94.7540026,25.6859984 95.317997,25.2660026 95.918,24.75 C96.518003,24.2339974 97.1239969,23.6520032 97.736,23.004 C98.3480031,22.3559968 98.9299972,21.6960034 99.482,21.024 C100.034003,20.3519966 100.537998,19.7100031 100.994,19.098 C101.450002,18.4859969 101.821999,17.9640022 102.11,17.532 L102.434,17.676 C101.857997,18.5160042 101.138004,19.4939944 100.274,20.61 C99.4099957,21.7260056 98.4500053,22.8119947 97.394,23.868 C96.6739964,24.5880036 96.0260029,25.1759977 95.45,25.632 C94.8739971,26.0880023 94.3220026,26.4479987 93.794,26.712 C93.2659974,26.9760013 92.7560025,27.1619995 92.264,27.27 C91.7719975,27.3780005 91.2620026,27.432 90.734,27.432 C89.725995,27.432 88.9040032,27.2160022 88.268,26.784 C87.6319968,26.3519978 87.314,25.6920044 87.314,24.804 C87.314,24.2999975 87.4039991,23.8620019 87.584,23.49 C87.7640009,23.1179981 87.9619989,22.7640017 88.178,22.428 C88.3940011,22.0919983 88.5919991,21.7500017 88.772,21.402 C88.9520009,21.0539983 89.042,20.6640022 89.042,20.232 C88.7299984,20.3520006 88.4060017,20.4599995 88.07,20.556 C87.7339983,20.6520005 87.3980017,20.7 87.062,20.7 C86.8939992,20.7 86.7500006,20.6640004 86.63,20.592 C86.5099994,20.5199996 86.45,20.388001 86.45,20.196 C86.45,19.8119981 86.7379971,19.62 87.314,19.62 C87.6980019,19.62 88.0339986,19.6499997 88.322,19.71 C88.6100014,19.7700003 88.8619989,19.8 89.078,19.8 C89.4380018,19.8 89.8039981,19.6860011 90.176,19.458 C90.5480019,19.2299989 90.8959984,18.9420017 91.22,18.594 C91.5440016,18.2459983 91.807999,17.8560022 92.012,17.424 C92.216001,16.9919978 92.318,16.572002 92.318,16.164 C92.318,15.8759986 92.2340008,15.630001 92.066,15.426 C91.8979992,15.221999 91.6580016,15.12 91.346,15.12 C90.9139978,15.12 90.3920031,15.3359978 89.78,15.768 C89.1679969,16.2000022 88.5200034,16.7639965 87.836,17.46 C87.1519966,18.1560035 86.4620035,18.9359957 85.766,19.8 C85.0699965,20.6640043 84.4160031,21.5279957 83.804,22.392 C83.1919969,23.2560043 82.6460024,24.0779961 82.166,24.858 C81.6859976,25.6380039 81.3140013,26.2799975 81.05,26.784 L76.082,27 Z M117.914,17.748 C117.361997,18.540004 116.744003,19.337996 116.06,20.142 C115.375997,20.946004 114.602004,21.7679958 113.738,22.608 C112.081992,24.1920079 110.474008,25.3919959 108.914,26.208 C107.353992,27.0240041 105.61401,27.432 103.694,27.432 C102.037992,27.432 100.778004,27.0480038 99.914,26.28 C99.0499957,25.5119962 98.618,24.3960073 98.618,22.932 C98.618,21.6599936 98.9779964,20.4600056 99.698,19.332 C100.418004,18.2039944 101.323995,17.2200042 102.416,16.38 C103.508005,15.5399958 104.695994,14.8680025 105.98,14.364 C107.264006,13.8599975 108.481994,13.608 109.634,13.608 C110.786006,13.608 111.733996,13.7939981 112.478,14.166 C113.222004,14.5380019 113.594,15.1439958 113.594,15.984 C113.594,16.8240042 113.186004,17.5559969 112.37,18.18 C111.553996,18.8040031 110.588006,19.3379978 109.472,19.782 C108.355994,20.2260022 107.234006,20.5859986 106.106,20.862 C104.977994,21.1380014 104.090003,21.3479993 103.442,21.492 C103.394,21.7320012 103.358,21.9719988 103.334,22.212 C103.31,22.4520012 103.298,22.6919988 103.298,22.932 C103.298,23.3640022 103.346,23.7899979 103.442,24.21 C103.538,24.6300021 103.699999,24.9959984 103.928,25.308 C104.156001,25.6200016 104.455998,25.871999 104.828,26.064 C105.200002,26.256001 105.661997,26.352 106.214,26.352 C107.342006,26.352 108.553994,25.9380041 109.85,25.11 C111.146006,24.2819959 112.453993,23.2440062 113.774,21.996 C114.614004,21.1799959 115.351997,20.3880038 115.988,19.62 C116.624003,18.8519962 117.157998,18.1560031 117.59,17.532 L117.914,17.748 Z M109.994,15.048 C109.994,14.3759966 109.658003,14.04 108.986,14.04 C108.457997,14.04 107.888003,14.3099973 107.276,14.85 C106.663997,15.3900027 106.100003,16.0379962 105.584,16.794 C105.067997,17.5500038 104.618002,18.323996 104.234,19.116 C103.849998,19.908004 103.61,20.5679974 103.514,21.096 C104.522005,20.8799989 105.427996,20.5500022 106.232,20.106 C107.036004,19.6619978 107.719997,19.1640028 108.284,18.612 C108.848003,18.0599972 109.273999,17.4720031 109.562,16.848 C109.850001,16.2239969 109.994,15.6240029 109.994,15.048 Z M123.602,13.752 C123.433999,14.1120018 123.158002,14.6039969 122.774,15.228 C122.389998,15.8520031 121.958002,16.5359963 121.478,17.28 C120.997998,18.0240037 120.506003,18.797996 120.002,19.602 C119.497997,20.406004 119.036002,21.1739963 118.616,21.906 C118.195998,22.6380037 117.854001,23.2979971 117.59,23.886 C117.325999,24.4740029 117.194,24.9239984 117.194,25.236 C117.194,25.5240014 117.253999,25.7819989 117.374,26.01 C117.494001,26.2380011 117.709998,26.352 118.022,26.352 C118.502002,26.352 119.059997,26.1360022 119.696,25.704 C120.332003,25.2719978 120.985997,24.7080035 121.658,24.012 C122.330003,23.3159965 122.989997,22.5420043 123.638,21.69 C124.286003,20.8379957 124.837998,20.0040041 125.294,19.188 L128.138,14.184 L133.214,14.04 C131.965994,16.1760107 130.718006,18.2639898 129.47,20.304 C128.221994,22.3440102 126.986006,24.3479902 125.762,26.316 L125.834,26.388 C126.578004,26.1239987 127.441995,25.6860031 128.426,25.074 C129.410005,24.4619969 130.417995,23.7420041 131.45,22.914 C132.482005,22.0859959 133.495995,21.174005 134.492,20.178 C135.488005,19.181995 136.357996,18.1680052 137.102,17.136 L137.39,17.352 C136.957998,17.952003 136.346004,18.6959956 135.554,19.584 C134.761996,20.4720044 133.844005,21.3779954 132.8,22.302 C131.755995,23.2260046 130.610006,24.1079958 129.362,24.948 C128.113994,25.7880042 126.818007,26.4599975 125.474,26.964 C124.537995,28.6920086 123.482006,30.2759928 122.306,31.716 C121.129994,33.1560072 119.822007,34.3859949 118.382,35.406 C116.941993,36.4260051 115.364009,37.2239971 113.648,37.8 C111.931991,38.3760029 110.05401,38.664 108.014,38.664 C107.245996,38.664 106.436004,38.568001 105.584,38.376 C104.731996,38.183999 103.952004,37.884002 103.244,37.476 C102.535996,37.067998 101.954002,36.5400032 101.498,35.892 C101.041998,35.2439968 100.814,34.4520047 100.814,33.516 C100.814,32.7719963 100.987998,32.1120029 101.336,31.536 C101.684002,30.9599971 102.133997,30.4800019 102.686,30.096 C103.238003,29.7119981 103.855997,29.424001 104.54,29.232 C105.224003,29.039999 105.889997,28.944 106.538,28.944 C107.546005,28.944 108.577995,29.0519989 109.634,29.268 L109.634,29.592 C109.489999,29.5439998 109.310001,29.52 109.094,29.52 L108.446,29.52 C107.821997,29.52 107.300002,29.6339989 106.88,29.862 C106.459998,30.0900011 106.124001,30.3899981 105.872,30.762 C105.619999,31.1340019 105.434001,31.5719975 105.314,32.076 C105.193999,32.5800025 105.134,33.1079972 105.134,33.66 C105.134,35.1000072 105.457997,36.221996 106.106,37.026 C106.754003,37.830004 107.641994,38.232 108.77,38.232 C109.874006,38.232 110.941995,37.9500028 111.974,37.386 C113.006005,36.8219972 113.983995,36.0900045 114.908,35.19 C115.832005,34.2899955 116.713996,33.2640058 117.554,32.112 C118.394004,30.9599942 119.185996,29.7900059 119.93,28.602 C120.674004,27.4139941 121.375997,26.2620056 122.036,25.146 C122.696003,24.0299944 123.313997,23.0640041 123.89,22.248 L123.818,22.176 C123.361998,22.7280028 122.864003,23.3159969 122.324,23.94 C121.783997,24.5640031 121.184003,25.1339974 120.524,25.65 C119.863997,26.1660026 119.150004,26.5919983 118.382,26.928 C117.613996,27.2640017 116.786004,27.432 115.898,27.432 C115.441998,27.432 115.052002,27.3480008 114.728,27.18 C114.403998,27.0119992 114.134001,26.7840014 113.918,26.496 C113.701999,26.2079986 113.546,25.8780019 113.45,25.506 C113.354,25.1339981 113.306,24.7560019 113.306,24.372 C113.306,23.4839956 113.515998,22.5780046 113.936,21.654 C114.356002,20.7299954 114.847997,19.8180045 115.412,18.918 C115.976003,18.0179955 116.545997,17.1540041 117.122,16.326 C117.698003,15.4979959 118.153998,14.7360035 118.49,14.04 L123.602,13.752 Z M170.87,1.008 C169.501993,1.10400048 168.182006,1.39799754 166.91,1.89 C165.637994,2.38200246 164.534005,3.15599472 163.598,4.212 C164.246003,4.71600252 164.857997,5.30399664 165.434,5.976 C166.010003,6.64800336 166.513998,7.39199592 166.946,8.208 C167.378002,9.02400408 167.719999,9.89399538 167.972,10.818 C168.224001,11.7420046 168.35,12.7319947 168.35,13.788 C168.35,15.6120091 168.068003,17.225993 167.504,18.63 C166.939997,20.034007 166.172005,21.2459949 165.2,22.266 C164.227995,23.2860051 163.088007,24.1379966 161.78,24.822 C160.471993,25.5060034 159.068007,26.051998 157.568,26.46 C156.067993,26.868002 154.508008,27.1559992 152.888,27.324 C151.267992,27.4920008 149.666008,27.576 148.082,27.576 C146.641993,27.576 145.400005,27.5160006 144.356,27.396 C143.311995,27.2759994 142.586002,27.1920002 142.178,27.144 C141.529997,27.2400005 140.786004,27.3359995 139.946,27.432 C139.105996,27.5280005 138.266004,27.576 137.426,27.576 C136.345995,27.576 135.512003,27.4680011 134.924,27.252 C134.335997,27.0359989 134.042,26.7120022 134.042,26.28 C134.042,26.0399988 134.161999,25.8360008 134.402,25.668 C134.642001,25.4999992 135.049997,25.416 135.626,25.416 C136.322003,25.416 137.257994,25.5359988 138.434,25.776 C139.610006,26.0160012 140.917993,26.2799986 142.358,26.568 C143.294005,26.4239993 144.151996,26.0880026 144.932,25.56 C145.712004,25.0319974 146.461996,24.3480042 147.182,23.508 C147.902004,22.6679958 148.603997,21.6840056 149.288,20.556 C149.972003,19.4279944 150.673996,18.1800068 151.394,16.812 C152.162004,15.3959929 152.899996,14.0400065 153.608,12.744 C154.316004,11.4479935 155.059996,10.2360056 155.84,9.108 C156.620004,7.97999436 157.465995,6.94800468 158.378,6.012 C159.290005,5.07599532 160.321994,4.26000348 161.474,3.564 C160.585996,2.93999688 159.500006,2.43000198 158.216,2.034 C156.931994,1.63799802 155.426009,1.44 153.698,1.44 C152.137992,1.44 150.584008,1.77599664 149.036,2.448 C147.487992,3.12000336 146.096006,4.04399412 144.86,5.22 C143.623994,6.39600588 142.622004,7.78199202 141.854,9.378 C141.085996,10.974008 140.702,12.7079906 140.702,14.58 C140.702,15.180003 140.761999,15.7619972 140.882,16.326 C141.002001,16.8900028 141.199999,17.3879978 141.476,17.82 C141.752001,18.2520022 142.123998,18.5999987 142.592,18.864 C143.060002,19.1280013 143.641997,19.26 144.338,19.26 C145.274005,19.26 146.107996,19.0140025 146.84,18.522 C147.572004,18.0299975 148.189997,17.4060038 148.694,16.65 C149.198003,15.8939962 149.575999,15.0660045 149.828,14.166 C150.080001,13.2659955 150.206,12.4080041 150.206,11.592 C150.206,10.8719964 150.134001,10.0920042 149.99,9.252 C149.845999,8.4119958 149.606002,7.58400408 149.27,6.768 L149.63,6.624 C149.966002,7.41600396 150.217999,8.23799574 150.386,9.09 C150.554001,9.94200426 150.638,10.7039966 150.638,11.376 C150.638,12.768007 150.428002,14.0159945 150.008,15.12 C149.587998,16.2240055 149.006004,17.1599962 148.262,17.928 C147.517996,18.6960038 146.642005,19.2899979 145.634,19.71 C144.625995,20.1300021 143.522006,20.34 142.322,20.34 C141.433996,20.34 140.630004,20.1720017 139.91,19.836 C139.189996,19.4999983 138.578003,19.0440029 138.074,18.468 C137.569997,17.8919971 137.186001,17.2260038 136.922,16.47 C136.657999,15.7139962 136.526,14.9280041 136.526,14.112 C136.526,12.7679933 136.771998,11.5140058 137.264,10.35 C137.756002,9.18599418 138.427996,8.11800486 139.28,7.146 C140.132004,6.17399514 141.121994,5.30400384 142.25,4.536 C143.378006,3.76799616 144.583994,3.12600258 145.868,2.61 C147.152006,2.09399742 148.477993,1.69800138 149.846,1.422 C151.214007,1.14599862 152.545994,1.008 153.842,1.008 C155.474008,1.008 157.033993,1.2179979 158.522,1.638 C160.010007,2.0580021 161.221995,2.57999688 162.158,3.204 C163.502007,2.41199604 164.905993,1.81200204 166.37,1.404 C167.834007,0.99599796 169.333992,0.72000072 170.87,0.576 L170.87,1.008 Z M143.438,26.82 C144.110003,26.9400006 144.919995,27.0239998 145.868,27.072 C146.816005,27.1200002 147.709996,27.144 148.55,27.144 C150.326009,27.144 151.951993,26.8860026 153.428,26.37 C154.904007,25.8539974 156.217994,25.1640043 157.37,24.3 C158.522006,23.4359957 159.523996,22.4280058 160.376,21.276 C161.228004,20.1239942 161.935997,18.9240062 162.5,17.676 C163.064003,16.4279938 163.483999,15.1560065 163.76,13.86 C164.036001,12.5639935 164.174,11.3400058 164.174,10.188 C164.174,9.27599544 164.096001,8.36400456 163.94,7.452 C163.783999,6.53999544 163.430003,5.71200372 162.878,4.968 C161.893995,6.43200732 161.018004,7.90199262 160.25,9.378 C159.481996,10.8540074 158.732004,12.293993 158,13.698 C157.267996,15.102007 156.500004,16.4519935 155.696,17.748 C154.891996,19.0440065 153.932006,20.2559944 152.816,21.384 C151.699994,22.5120056 150.392008,23.5319954 148.892,24.444 C147.391992,25.3560046 145.574011,26.1239969 143.438,26.748 L143.438,26.82 Z M188.582,17.748 C188.029997,18.540004 187.412003,19.337996 186.728,20.142 C186.043997,20.946004 185.270004,21.7679958 184.406,22.608 C182.749992,24.1920079 181.142008,25.3919959 179.582,26.208 C178.021992,27.0240041 176.28201,27.432 174.362,27.432 C172.705992,27.432 171.446004,27.0480038 170.582,26.28 C169.717996,25.5119962 169.286,24.3960073 169.286,22.932 C169.286,21.6599936 169.645996,20.4600056 170.366,19.332 C171.086004,18.2039944 171.991995,17.2200042 173.084,16.38 C174.176005,15.5399958 175.363994,14.8680025 176.648,14.364 C177.932006,13.8599975 179.149994,13.608 180.302,13.608 C181.454006,13.608 182.401996,13.7939981 183.146,14.166 C183.890004,14.5380019 184.262,15.1439958 184.262,15.984 C184.262,16.8240042 183.854004,17.5559969 183.038,18.18 C182.221996,18.8040031 181.256006,19.3379978 180.14,19.782 C179.023994,20.2260022 177.902006,20.5859986 176.774,20.862 C175.645994,21.1380014 174.758003,21.3479993 174.11,21.492 C174.062,21.7320012 174.026,21.9719988 174.002,22.212 C173.978,22.4520012 173.966,22.6919988 173.966,22.932 C173.966,23.3640022 174.014,23.7899979 174.11,24.21 C174.206,24.6300021 174.367999,24.9959984 174.596,25.308 C174.824001,25.6200016 175.123998,25.871999 175.496,26.064 C175.868002,26.256001 176.329997,26.352 176.882,26.352 C178.010006,26.352 179.221994,25.9380041 180.518,25.11 C181.814006,24.2819959 183.121993,23.2440062 184.442,21.996 C185.282004,21.1799959 186.019997,20.3880038 186.656,19.62 C187.292003,18.8519962 187.825998,18.1560031 188.258,17.532 L188.582,17.748 Z M180.662,15.048 C180.662,14.3759966 180.326003,14.04 179.654,14.04 C179.125997,14.04 178.556003,14.3099973 177.944,14.85 C177.331997,15.3900027 176.768003,16.0379962 176.252,16.794 C175.735997,17.5500038 175.286002,18.323996 174.902,19.116 C174.517998,19.908004 174.278,20.5679974 174.182,21.096 C175.190005,20.8799989 176.095996,20.5500022 176.9,20.106 C177.704004,19.6619978 178.387997,19.1640028 178.952,18.612 C179.516003,18.0599972 179.941999,17.4720031 180.23,16.848 C180.518001,16.2239969 180.662,15.6240029 180.662,15.048 Z M194.126,14.04 C193.765998,14.6880032 193.250003,15.509995 192.578,16.506 C191.905997,17.502005 191.234003,18.5279947 190.562,19.584 C189.889997,20.6400053 189.308002,21.6839948 188.816,22.716 C188.323998,23.7480052 188.078,24.6239964 188.078,25.344 C188.078,25.8240024 188.197999,26.2199984 188.438,26.532 C188.678001,26.8440016 189.049997,27 189.554,27 C190.298004,27 191.053996,26.7240028 191.822,26.172 C192.590004,25.6199972 193.321997,24.9000044 194.018,24.012 C194.714003,23.1239956 195.343997,22.1160056 195.908,20.988 C196.472003,19.8599944 196.921998,18.7200058 197.258,17.568 C197.162,17.3519989 197.096,17.1120013 197.06,16.848 C197.024,16.5839987 197.006,16.3200013 197.006,16.056 C197.006,15.4319969 197.197998,14.8680025 197.582,14.364 C197.966002,13.8599975 198.481997,13.608 199.13,13.608 C200.042005,13.608 200.695998,13.8779973 201.092,14.418 C201.488002,14.9580027 201.686,15.6719956 201.686,16.56 C201.686,17.160003 201.614001,17.7359972 201.47,18.288 C201.902002,18.7200022 202.339998,19.0079993 202.784,19.152 C203.228002,19.2960007 203.653998,19.368 204.062,19.368 C204.854004,19.368 205.537997,19.164002 206.114,18.756 C206.690003,18.347998 207.181998,17.8800026 207.59,17.352 L207.914,17.568 C207.745999,17.8080012 207.530001,18.0599987 207.266,18.324 C207.001999,18.5880013 206.708002,18.8279989 206.384,19.044 C206.059998,19.2600011 205.706002,19.4399993 205.322,19.584 C204.937998,19.7280007 204.518002,19.8 204.062,19.8 C203.077995,19.8 202.178004,19.4640034 201.362,18.792 C201.025998,20.0400062 200.444004,21.1979947 199.616,22.266 C198.787996,23.3340053 197.822006,24.2459962 196.718,25.002 C195.613994,25.7580038 194.420006,26.3519978 193.136,26.784 C191.851994,27.2160022 190.574006,27.432 189.302,27.432 C187.837993,27.432 186.716004,27.036004 185.936,26.244 C185.155996,25.451996 184.766,24.3840067 184.766,23.04 C184.766,22.439997 184.873999,21.8220032 185.09,21.186 C185.306001,20.5499968 185.605998,19.8720036 185.99,19.152 C186.374002,18.4319964 186.823997,17.6580041 187.34,16.83 C187.856003,16.0019959 188.413997,15.1200047 189.014,14.184 L194.126,14.04 Z" id="MonkeyDev" fill="#5BA7FF"></path>
    </g>
</svg>